<svg width="892" height="876" viewBox="0 0 892 876" fill="none" xmlns="http://www.w3.org/2000/svg">
<path d="M609.085 811.103C683.415 785.44 773.227 784.849 824.674 725.697C876.216 666.435 868.82 579.205 878.089 501.81C886.941 427.9 902.722 352.462 877.747 282.561C852.612 212.211 797.395 157.905 738.597 111.39C680.309 65.2779 613.65 31.9865 540.645 15.8795C464.768 -0.861162 384.418 -9.24289 310.963 17.042C237.052 43.4902 182.508 103.304 131.198 162.395C79.0329 222.47 28.1562 285.952 10.5378 363.025C-7.52623 442.047 -2.00581 526.786 31.0633 600.44C63.3069 672.255 129.407 720.298 192.378 768.03C253.652 814.476 315.937 866.79 392.952 874.75C468.752 882.586 536.858 836.04 609.085 811.103Z" fill="url(#paint0_linear_1125_286)"/>
<defs>
<linearGradient id="paint0_linear_1125_286" x1="681.626" y1="38.6128" x2="465.031" y2="821.847" gradientUnits="userSpaceOnUse">
<stop offset="0.00399963" stop-color="#695E91"/>
<stop offset="0.144" stop-color="#BC48AA"/>
<stop offset="0.424" stop-color="#FF5775"/>
<stop offset="0.694" stop-color="#FEB9B9"/>
<stop offset="0.92" stop-color="#F5F5A0"/>
<stop offset="1" stop-color="#F5F5A0"/>
</linearGradient>
</defs>
</svg>
