<svg width="122" height="51" viewBox="0 0 122 51" fill="none" xmlns="http://www.w3.org/2000/svg">
<path d="M10.4256 14.7179C10.4256 14.7179 1.00607 -1.31299 3.31853 3.6523C5.63099 8.61758 6.53785 8.93256 6.53785 8.93256C6.53785 8.93256 11.6296 14.6225 21.3144 21.667C30.9992 28.7115 43.3795 33.381 58.4553 35.6755C73.531 37.97 90.7968 31.075 106.858 21.667C122.919 12.259 122.985 14.4342 107.054 28.1927C91.1225 41.9512 73.3675 50.4138 57.1829 46.9041C40.9984 43.3944 28.2196 36.8415 18.8466 27.2452L6.53785 8.93256L10.4256 14.7179Z" fill="black"/>
<path d="M6.53785 8.93256C6.53785 8.93256 5.63099 8.61758 3.31853 3.6523C1.00607 -1.31299 10.4256 14.7179 10.4256 14.7179L6.53785 8.93256ZM6.53785 8.93256C6.53785 8.93256 11.6296 14.6225 21.3144 21.667C30.9992 28.7115 43.3795 33.381 58.4553 35.6755C73.531 37.97 90.7968 31.075 106.858 21.667C122.919 12.259 122.985 14.4342 107.054 28.1927C91.1225 41.9512 73.3675 50.4138 57.1829 46.9041C40.9984 43.3944 28.2196 36.8415 18.8466 27.2452L6.53785 8.93256Z" stroke="black" stroke-width="5" stroke-linecap="round"/>
</svg>
