<svg width="113" height="51" viewBox="0 0 113 51" fill="none" xmlns="http://www.w3.org/2000/svg">
<path d="M9.84587 14.7179C9.84587 14.7179 1.15713 -1.31299 3.29017 3.6523C5.42322 8.61758 6.25972 8.93256 6.25972 8.93256C6.25972 8.93256 10.9564 14.6225 19.8898 21.667C28.8232 28.7115 40.2429 33.381 54.149 35.6755C68.0552 37.97 83.9814 31.075 98.7965 21.667C113.612 12.259 113.672 14.4342 98.9768 28.1927C84.2818 41.9512 67.9043 50.4138 52.9754 46.9041C38.0466 43.3944 26.2592 36.8415 17.6135 27.2452L6.25972 8.93256L9.84587 14.7179Z" fill="black"/>
<path d="M6.25972 8.93256C6.25972 8.93256 5.42322 8.61758 3.29017 3.6523C1.15713 -1.31299 9.84587 14.7179 9.84587 14.7179L6.25972 8.93256ZM6.25972 8.93256C6.25972 8.93256 10.9564 14.6225 19.8898 21.667C28.8232 28.7115 40.2429 33.381 54.149 35.6755C68.0552 37.97 83.9814 31.075 98.7965 21.667C113.612 12.259 113.672 14.4342 98.9768 28.1927C84.2818 41.9512 67.9043 50.4138 52.9754 46.9041C38.0466 43.3944 26.2592 36.8415 17.6135 27.2452L6.25972 8.93256Z" stroke="black" stroke-width="5" stroke-linecap="round"/>
</svg>
