<svg width="49" height="40" viewBox="0 0 49 40" fill="none" xmlns="http://www.w3.org/2000/svg">
<path id="Vector" fill-rule="evenodd" clip-rule="evenodd" d="M15.9258 0.653879C13.1151 -0.295 9.87223 -0.276394 7.22184 1.14227C1.10144 4.42614 -1.54895 12.8916 0.914356 21.8595C2.01906 25.8829 3.96564 29.79 8.08154 33.7297C12.1974 37.6741 17.908 39.9998 20.554 39.9998C20.7766 40.0035 20.9978 39.9613 21.2048 39.8755C21.4118 39.7898 21.6006 39.6623 21.7603 39.5002C21.92 39.3382 22.0476 39.1449 22.1356 38.9313C22.2237 38.7177 22.2705 38.488 22.2734 38.2555C22.2734 37.2927 21.4894 36.5113 20.554 36.5113C17.5294 36.5113 14.8256 34.7903 11.6228 32.2599C9.17288 30.3203 7.25748 27.8411 6.20177 25.6829C4.17501 21.5525 4.10818 15.729 7.38219 14.1801C8.14229 15.0809 9.07905 15.8005 10.1289 16.2901C11.1788 16.7796 12.3172 17.0277 13.467 17.0174C18.8123 17.0174 21.9616 12.5288 21.8235 8.46352C21.6943 4.57963 19.329 1.81207 15.9258 0.653879ZM42.6524 0.653879C39.8417 -0.295 36.5988 -0.276394 33.9485 1.14227C27.8281 4.42614 25.1777 12.8916 27.641 21.8595C28.7457 25.8829 30.6923 29.79 34.8082 33.7297C38.9241 37.6741 44.6347 39.9998 47.2806 39.9998C47.5033 40.0035 47.7244 39.9613 47.9314 39.8755C48.1384 39.7898 48.3272 39.6623 48.4869 39.5002C48.6467 39.3382 48.7742 39.1449 48.8622 38.9313C48.9503 38.7177 48.9971 38.488 49 38.2555C49 37.2927 48.216 36.5113 47.2806 36.5113C44.256 36.5113 41.5522 34.7903 38.3494 32.2599C35.8995 30.3203 33.9841 27.8411 32.9284 25.6829C30.9016 21.5525 30.8348 15.729 34.1088 14.1801C35.6812 15.9755 37.7347 17.0174 40.1936 17.0174C45.5389 17.0174 48.6882 12.5288 48.5501 8.46352C48.4209 4.57963 46.0556 1.81207 42.6524 0.653879Z" fill="#122620"/>
</svg>
