<svg width="50" height="40" viewBox="0 0 50 40" fill="none" xmlns="http://www.w3.org/2000/svg">
<path id="Vector" fill-rule="evenodd" clip-rule="evenodd" d="M33.7492 0.653879C36.6173 -0.295 39.9263 -0.276394 42.6308 1.14227C48.8761 4.42614 51.5806 12.8916 49.067 21.8595C47.9397 25.8829 45.9534 29.79 41.7535 33.7297C37.5536 37.6741 31.7265 39.9998 29.0266 39.9998C28.7994 40.0035 28.5737 39.9612 28.3624 39.8755C28.1512 39.7898 27.9586 39.6623 27.7956 39.5002C27.6326 39.3382 27.5025 39.1449 27.4126 38.9313C27.3228 38.7177 27.275 38.488 27.2721 38.2555C27.2721 37.2927 28.072 36.5113 29.0266 36.5113C32.1129 36.5113 34.8719 34.7902 38.14 32.2599C40.6399 30.3203 42.5944 27.8411 43.6717 25.6829C45.7398 21.5525 45.808 15.729 42.4671 14.18C41.6915 15.0809 40.7357 15.8005 39.6644 16.2901C38.5931 16.7796 37.4314 17.0277 36.2582 17.0174C30.8038 17.0174 27.5902 12.5288 27.7311 8.46352C27.863 4.57963 30.2765 1.81207 33.7492 0.653879ZM6.47711 0.653879C9.34523 -0.295 12.6542 -0.276394 15.3587 1.14227C21.604 4.42614 24.3085 12.8916 21.7949 21.8595C20.6677 25.8829 18.6814 29.79 14.4815 33.7297C10.2816 37.6741 4.45444 39.9998 1.7545 39.9998C1.52729 40.0035 1.30161 39.9612 1.09038 39.8755C0.879142 39.7898 0.686513 39.6623 0.523527 39.5002C0.360541 39.3382 0.230401 39.1449 0.140565 38.9313C0.0507285 38.7177 0.00296132 38.488 0 38.2555C0 37.2927 0.79998 36.5113 1.7545 36.5113C4.84079 36.5113 7.59981 34.7902 10.8679 32.2599C13.3679 30.3203 15.3224 27.8411 16.3996 25.6829C18.4677 21.5525 18.5359 15.729 15.1951 14.18C13.5906 15.9755 11.4952 17.0174 8.98614 17.0174C3.53173 17.0174 0.318174 12.5288 0.45908 8.46352C0.590895 4.57963 3.00447 1.81207 6.47711 0.653879Z" fill="#122620"/>
</svg>
