<svg width="117" height="117" viewBox="0 0 117 117" fill="none" xmlns="http://www.w3.org/2000/svg">
<g id="Group">
<path id="Vector" d="M84.5688 52.6627L44.1063 32.4252C42.9624 31.8528 41.6911 31.5825 40.4133 31.6399C39.1356 31.6973 37.8937 32.0806 36.8058 32.7532C35.7178 33.4259 34.82 34.3656 34.1977 35.4831C33.5753 36.6006 33.2491 37.8586 33.25 39.1377V77.3627C33.2491 78.6418 33.5753 79.8998 34.1977 81.0173C34.82 82.1348 35.7178 83.0745 36.8058 83.7472C37.8937 84.4198 39.1356 84.8031 40.4133 84.8605C41.6911 84.9179 42.9624 84.6476 44.1063 84.0752L84.5688 63.8377C85.6055 63.3181 86.4773 62.5203 87.0865 61.5335C87.6957 60.5467 88.0183 59.4099 88.0183 58.2502C88.0183 57.0905 87.6957 55.9537 87.0865 54.9669C86.4773 53.9801 85.6055 53.1823 84.5688 52.6627Z" stroke="#D8E8F9" stroke-opacity="0.6" stroke-width="4" stroke-linecap="round" stroke-linejoin="round"/>
<path id="Vector_2" d="M58.25 114.5C89.316 114.5 114.5 89.316 114.5 58.25C114.5 27.184 89.316 2 58.25 2C27.184 2 2 27.184 2 58.25C2 89.316 27.184 114.5 58.25 114.5Z" stroke="#D8E8F9" stroke-opacity="0.6" stroke-width="4"/>
</g>
</svg>
