<svg width="118" height="99" viewBox="0 0 118 99" fill="none" xmlns="http://www.w3.org/2000/svg">
<path id="Vector" d="M78.6445 37.8926L50.5195 19.1426C50.1665 18.907 49.7561 18.7718 49.3322 18.7512C48.9082 18.7307 48.4867 18.8256 48.1125 19.026C47.7384 19.2263 47.4256 19.5244 47.2077 19.8886C46.9897 20.2528 46.8747 20.6693 46.875 21.0938V58.5938C46.8745 59.0181 46.9893 59.4347 47.207 59.799C47.4247 60.1633 47.7373 60.4616 48.1113 60.6621C48.4857 60.8626 48.9075 60.9576 49.3317 60.9369C49.7558 60.9163 50.1664 60.7808 50.5195 60.5449L78.6445 41.7949C78.966 41.581 79.2297 41.2909 79.412 40.9505C79.5944 40.6101 79.6898 40.2299 79.6898 39.8438C79.6898 39.4576 79.5944 39.0774 79.412 38.737C79.2297 38.3966 78.966 38.1065 78.6445 37.8926ZM51.5625 54.2168V25.4707L73.1191 39.8438L51.5625 54.2168ZM110.156 0H7.03125C5.16645 0 3.37802 0.740789 2.05941 2.0594C0.74079 3.37802 0 5.16645 0 7.03125V72.6562C0 74.5211 0.74079 76.3095 2.05941 77.6281C3.37802 78.9467 5.16645 79.6875 7.03125 79.6875H110.156C112.021 79.6875 113.809 78.9467 115.128 77.6281C116.447 76.3095 117.188 74.5211 117.188 72.6562V7.03125C117.188 5.16645 116.447 3.37802 115.128 2.0594C113.809 0.740789 112.021 0 110.156 0ZM112.5 72.6562C112.5 73.2779 112.253 73.874 111.814 74.3135C111.374 74.7531 110.778 75 110.156 75H7.03125C6.40965 75 5.81351 74.7531 5.37397 74.3135C4.93443 73.874 4.6875 73.2779 4.6875 72.6562V7.03125C4.6875 6.40965 4.93443 5.81351 5.37397 5.37397C5.81351 4.93443 6.40965 4.6875 7.03125 4.6875H110.156C110.778 4.6875 111.374 4.93443 111.814 5.37397C112.253 5.81351 112.5 6.40965 112.5 7.03125V72.6562ZM117.188 96.0938C117.188 96.7154 116.941 97.3115 116.501 97.751C116.061 98.1906 115.465 98.4375 114.844 98.4375H2.34375C1.72215 98.4375 1.12601 98.1906 0.686469 97.751C0.246931 97.3115 0 96.7154 0 96.0938C0 95.4721 0.246931 94.876 0.686469 94.4365C1.12601 93.9969 1.72215 93.75 2.34375 93.75H114.844C115.465 93.75 116.061 93.9969 116.501 94.4365C116.941 94.876 117.188 95.4721 117.188 96.0938Z" fill="#D8E8F9" fill-opacity="0.6"/>
</svg>
