<svg width="139" height="131" viewBox="0 0 139 131" fill="none" xmlns="http://www.w3.org/2000/svg">
<path id="Vector" d="M103.228 5.69987C88.6371 -1.13269 71.6413 -0.986707 55.5998 5.01501L58.9575 9.26071C74.0133 3.99273 89.432 3.76855 101.489 9.41435C113.548 15.0611 123.254 27.0459 128.85 41.9843L134.252 41.8454C128.59 25.6806 117.819 12.5326 103.228 5.69987ZM50.5385 7.11762C33.638 14.8513 18.2359 29.1489 8.44564 48.6606L12.166 50.4027C21.5336 31.9351 36.772 18.8059 52.9638 11.6313C53.2476 11.5054 53.5328 11.3856 53.8174 11.2634L50.5381 7.11777L50.5385 7.11762ZM135.877 47.0793L130.603 47.2153C130.69 47.5077 130.779 47.7987 130.863 48.093C135.722 65.1209 135.395 85.2328 127.2 104.27L130.92 106.012C139.639 85.9984 140.759 65.0128 135.877 47.0794L135.877 47.0793ZM42.9639 45.9969C42.0409 45.5604 40.978 45.4157 40.6712 46.028L16.8435 96.9124C16.3465 97.9737 20.061 99.7131 20.558 98.6518L44.4124 47.7104C44.6701 47.1601 43.8873 46.4325 42.9633 45.9966L42.9639 45.9969ZM110.864 77.7925C109.937 77.3619 108.877 77.2265 108.62 77.7768L84.7651 128.718C84.2681 129.779 87.9826 131.519 88.4796 130.458L112.307 79.5732C112.582 78.9457 111.789 78.222 110.864 77.7925ZM34.7133 46.3162C30.2709 45.0101 26.5229 46.0911 22.8611 48.7372C18.5359 51.8632 14.6478 57.3879 11.7902 63.4902C8.93266 69.5926 7.17862 76.1169 7.54707 81.4405C7.85953 85.9476 9.42881 89.5186 13.2766 92.0945L34.7133 46.3162ZM115.901 84.3342L94.4645 130.113C98.9069 131.419 102.655 130.338 106.317 127.692C110.642 124.566 114.53 119.041 117.388 112.938C120.245 106.836 121.999 100.312 121.631 94.9882C121.318 90.4811 119.749 86.9102 115.901 84.3342ZM6.15755 53.4121L0.442425 65.6168L4.1569 67.3562L9.87203 55.1515L6.15755 53.4121ZM125.021 109.072L119.306 121.277L123.02 123.017L128.735 110.812L125.021 109.072Z" fill="#D8E8F9" fill-opacity="0.6"/>
</svg>
