<svg width="129" height="123" viewBox="0 0 129 123" fill="none" xmlns="http://www.w3.org/2000/svg">
<path id="Vector" d="M76.3017 3.30718C65.1753 -0.0137938 53.3134 0.0434937 42.2196 3.47177C31.1259 6.90005 21.2997 13.545 13.9868 22.5642C6.67388 31.5834 2.20346 42.5708 1.14223 54.1336C0.0809912 65.6964 2.47672 77.314 8.02573 87.5137L23.7122 116.334C25.1981 119.064 27.7075 121.091 30.6884 121.971C33.6693 122.851 36.8776 122.51 39.6074 121.024L47.8417 116.542C50.5716 115.057 52.5993 112.547 53.479 109.566C54.3586 106.585 54.0181 103.377 52.5323 100.647L41.3276 80.0615C39.8418 77.3316 37.3324 75.3039 34.3515 74.4242C31.3705 73.5446 28.1623 73.8851 25.4324 75.3709L11.0636 83.1918C4.95919 70.7131 3.90789 56.3595 8.12891 43.1246C12.3499 29.8896 21.5174 18.7951 33.7194 12.1549L34.0796 11.9588C46.2609 5.40646 60.499 3.80131 73.8334 7.47711C87.1677 11.1529 98.5723 19.8268 105.676 31.6952L91.3068 39.5161C88.5769 41.0019 86.5491 43.5113 85.6695 46.4922C84.7898 49.4731 85.1304 52.6814 86.6162 55.4113L97.8209 75.997C99.3067 78.7268 101.816 80.7546 104.797 81.6343C107.778 82.5139 110.986 82.1734 113.716 80.6875L121.95 76.2057C124.68 74.7198 126.708 72.2104 127.588 69.2295C128.467 66.2486 128.127 63.0403 126.641 60.3105L110.954 31.4905C107.316 24.7442 102.383 18.7822 96.4362 13.946C90.4899 9.10978 83.6477 5.49446 76.3017 3.30718ZM27.6733 79.4881C29.3113 78.5966 31.2362 78.3923 33.0248 78.92C34.8133 79.4478 36.319 80.6645 37.2105 82.3024L48.4151 102.888C49.3066 104.526 49.5109 106.451 48.9831 108.24C48.4554 110.028 47.2387 111.534 45.6008 112.425L37.3665 116.907C35.7286 117.799 33.8036 118.003 32.0151 117.475C30.2265 116.947 28.7209 115.731 27.8294 114.093L13.2633 87.3313L27.6733 79.4881ZM122.524 62.5514C123.415 64.1893 123.62 66.1143 123.092 67.9028C122.564 69.6914 121.347 71.197 119.709 72.0885L111.475 76.5704C109.837 77.4619 107.912 77.6662 106.124 77.1384C104.335 76.6106 102.83 75.394 101.938 73.7561L90.7334 53.1703C89.8419 51.5324 89.6375 49.6075 90.1653 47.8189C90.6931 46.0304 91.9098 44.5247 93.5477 43.6332L107.958 35.79L122.524 62.5514Z" fill="#D8E8F9" fill-opacity="0.6"/>
</svg>
