<svg width="104" height="78" viewBox="0 0 104 78" fill="none" xmlns="http://www.w3.org/2000/svg">
<path id="Vector" d="M9.54321 70.4306C3.57779 64.2769 0.375 57.375 0.375 46.1869C0.375 26.4994 14.6051 8.85377 35.2987 0.129395L40.4707 7.88065C21.1555 18.0281 17.3793 31.1963 15.8735 39.4988C18.9836 37.935 23.0552 37.3894 27.0456 37.7494C37.4938 38.6888 45.7295 47.0194 45.7295 57.375C45.7295 62.5965 43.5939 67.6041 39.7924 71.2962C35.9908 74.9883 30.8349 77.0625 25.4587 77.0625C22.4855 77.0376 19.5472 76.4384 16.8148 75.2998C14.0824 74.1613 11.6106 72.5061 9.54321 70.4306ZM67.4599 70.4306C61.4945 64.2769 58.2917 57.375 58.2917 46.1869C58.2917 26.4994 72.5218 8.85377 93.2154 0.129395L98.3874 7.88065C79.0722 18.0281 75.296 31.1963 73.7902 39.4988C76.9003 37.935 80.9718 37.3894 84.9623 37.7494C95.4105 38.6888 103.646 47.0194 103.646 57.375C103.646 62.5965 101.511 67.6041 97.709 71.2962C93.9075 74.9883 88.7515 77.0625 83.3754 77.0625C80.4022 77.0376 77.4639 76.4384 74.7315 75.2998C71.9991 74.1613 69.5272 72.5061 67.4599 70.4306Z" fill="black"/>
</svg>
