<svg width="727" height="758" viewBox="0 0 727 758" fill="none" xmlns="http://www.w3.org/2000/svg">
<path d="M356.923 757.086C650.543 753.189 815.638 437.794 676.859 179.012C545.465 -66.0002 185.995 -55.9359 51.3679 187.315C-87.7758 438.726 69.6006 760.9 356.923 757.086Z" fill="#BDAA8C"/>
<path d="M204.473 314.02C204.473 314.02 195.053 297.989 197.365 302.954C199.678 307.919 200.585 308.234 200.585 308.234C200.585 308.234 205.676 313.924 215.361 320.969C225.046 328.013 237.426 332.683 252.502 334.977C267.578 337.272 284.844 330.377 300.905 320.969C316.966 311.561 317.031 313.736 301.1 327.494C285.169 341.253 267.414 349.716 251.23 346.206C235.045 342.696 222.266 336.143 212.893 326.547L200.585 308.234L204.473 314.02Z" fill="black"/>
<path d="M200.585 308.234C200.585 308.234 199.678 307.919 197.365 302.954C195.053 297.989 204.473 314.02 204.473 314.02L200.585 308.234ZM200.585 308.234C200.585 308.234 205.676 313.924 215.361 320.969C225.046 328.013 237.426 332.683 252.502 334.977C267.578 337.272 284.844 330.377 300.905 320.969C316.966 311.561 317.031 313.736 301.1 327.494C285.169 341.253 267.414 349.716 251.23 346.206C235.045 342.696 222.266 336.143 212.893 326.547L200.585 308.234Z" stroke="black" stroke-width="5" stroke-linecap="round"/>
<path d="M420.473 314.02C420.473 314.02 411.053 297.989 413.365 302.954C415.678 307.919 416.585 308.234 416.585 308.234C416.585 308.234 421.676 313.924 431.361 320.969C441.046 328.013 453.426 332.683 468.502 334.977C483.578 337.272 500.844 330.377 516.905 320.969C532.966 311.561 533.031 313.736 517.1 327.494C501.169 341.253 483.414 349.716 467.23 346.206C451.045 342.696 438.266 336.143 428.893 326.547L416.585 308.234L420.473 314.02Z" fill="black"/>
<path d="M416.585 308.234C416.585 308.234 415.678 307.919 413.365 302.954C411.053 297.989 420.473 314.02 420.473 314.02L416.585 308.234ZM416.585 308.234C416.585 308.234 421.676 313.924 431.361 320.969C441.046 328.013 453.426 332.683 468.502 334.977C483.578 337.272 500.844 330.377 516.905 320.969C532.966 311.561 533.031 313.736 517.1 327.494C501.169 341.253 483.414 349.716 467.23 346.206C451.045 342.696 438.266 336.143 428.893 326.547L416.585 308.234Z" stroke="black" stroke-width="5" stroke-linecap="round"/>
<g filter="url(#filter0_f_0_1)">
<ellipse cx="178.5" cy="412" rx="59.5" ry="56" fill="#B23459"/>
</g>
<g filter="url(#filter1_f_0_1)">
<ellipse cx="563.5" cy="403" rx="59.5" ry="56" fill="#B23459"/>
</g>
<path d="M317.351 458.075C317.351 458.075 306.746 438.007 309.441 444.263C312.136 450.52 313.048 450.866 313.048 450.866C313.048 450.866 318.516 457.872 328.582 466.319C338.648 474.767 351.131 479.967 366.032 481.92C380.932 483.873 401.271 472.302 416.094 459.079C430.918 445.856 431.174 448.66 416.864 467.492C402.553 486.324 381.876 499.952 365.787 496.504C349.698 493.056 336.659 485.45 326.671 473.687L313.048 450.866L317.351 458.075Z" fill="black"/>
<path d="M313.048 450.866C313.048 450.866 312.136 450.52 309.441 444.263C306.746 438.007 317.351 458.075 317.351 458.075L313.048 450.866ZM313.048 450.866C313.048 450.866 318.516 457.872 328.582 466.319C338.648 474.767 351.131 479.967 366.032 481.92C380.932 483.873 401.271 472.302 416.094 459.079C430.918 445.856 431.174 448.66 416.864 467.492C402.553 486.324 381.876 499.952 365.787 496.504C349.698 493.056 336.659 485.45 326.671 473.687L313.048 450.866Z" stroke="black" stroke-width="5" stroke-linecap="round"/>
<!-- <path d="M552 267.7H662V157.7H552V267.7Z" fill="black"/> -->
<path d="M0 110.7H110V0.699999H0V110.7Z" fill="black"/>
<defs>
<filter id="filter0_f_0_1" x="21.2" y="258.2" width="314.6" height="307.6" filterUnits="userSpaceOnUse" color-interpolation-filters="sRGB">
<feFlood flood-opacity="0" result="BackgroundImageFix"/>
<feBlend mode="normal" in="SourceGraphic" in2="BackgroundImageFix" result="shape"/>
<feGaussianBlur stdDeviation="48.9" result="effect1_foregroundBlur_0_1"/>
</filter>
<filter id="filter1_f_0_1" x="406.2" y="249.2" width="314.6" height="307.6" filterUnits="userSpaceOnUse" color-interpolation-filters="sRGB">
<feFlood flood-opacity="0" result="BackgroundImageFix"/>
<feBlend mode="normal" in="SourceGraphic" in2="BackgroundImageFix" result="shape"/>
<feGaussianBlur stdDeviation="48.9" result="effect1_foregroundBlur_0_1"/>
</filter>
</defs>
</svg>

