<svg width="1484" height="1327" viewBox="0 0 1484 1327" fill="none" xmlns="http://www.w3.org/2000/svg">
<path d="M735.923 1042.09C1029.54 1038.19 1194.64 722.794 1055.86 464.012C924.465 219 564.995 229.064 430.368 472.315C291.224 723.726 448.601 1045.9 735.923 1042.09Z" fill="#BDAA8C"/>
<path d="M711.655 781.843C711.655 781.843 704.505 776.594 706.285 778.25C708.066 779.906 708.724 779.973 708.724 779.973C708.724 779.973 712.516 781.75 719.636 783.783C726.757 785.817 735.752 786.871 746.624 786.946C757.495 787.02 772.782 783.162 784.073 779.018C795.365 774.874 795.465 775.646 784.373 781.334C773.281 787.022 757.682 791.463 745.986 791.01C734.289 790.556 724.961 788.851 718.003 785.893L708.724 779.973L711.655 781.843Z" fill="black"/>
<path d="M708.724 779.973C708.724 779.973 708.066 779.906 706.285 778.25C704.505 776.594 711.655 781.843 711.655 781.843L708.724 779.973ZM708.724 779.973C708.724 779.973 712.516 781.75 719.636 783.783C726.757 785.817 735.752 786.871 746.624 786.946C757.495 787.02 772.782 783.162 784.073 779.018C795.365 774.874 795.465 775.646 784.373 781.334C773.281 787.022 757.682 791.463 745.986 791.01C734.289 790.556 724.961 788.851 718.003 785.893L708.724 779.973Z" stroke="black" stroke-width="5" stroke-linecap="round"/>
<path d="M583.473 599.02C583.473 599.02 574.053 582.989 576.365 587.954C578.678 592.919 579.585 593.234 579.585 593.234C579.585 593.234 584.676 598.924 594.361 605.969C604.046 613.013 616.426 617.683 631.502 619.977C646.578 622.272 663.844 615.377 679.905 605.969C695.966 596.561 696.031 598.736 680.1 612.494C664.169 626.253 646.414 634.716 630.23 631.206C614.045 627.696 601.266 621.143 591.893 611.547L579.585 593.234L583.473 599.02Z" fill="black"/>
<path d="M579.585 593.234C579.585 593.234 578.678 592.919 576.365 587.954C574.053 582.989 583.473 599.02 583.473 599.02L579.585 593.234ZM579.585 593.234C579.585 593.234 584.676 598.924 594.361 605.969C604.046 613.013 616.426 617.683 631.502 619.977C646.578 622.272 663.844 615.377 679.905 605.969C695.966 596.561 696.031 598.736 680.1 612.494C664.169 626.253 646.414 634.716 630.23 631.206C614.045 627.696 601.266 621.143 591.893 611.547L579.585 593.234Z" stroke="black" stroke-width="5" stroke-linecap="round"/>
<path d="M799.473 599.02C799.473 599.02 790.053 582.989 792.365 587.954C794.678 592.919 795.585 593.234 795.585 593.234C795.585 593.234 800.676 598.924 810.361 605.969C820.046 613.013 832.426 617.683 847.502 619.977C862.578 622.272 879.844 615.377 895.905 605.969C911.966 596.561 912.031 598.736 896.1 612.494C880.169 626.253 862.414 634.716 846.23 631.206C830.045 627.696 817.266 621.143 807.893 611.547L795.585 593.234L799.473 599.02Z" fill="black"/>
<path d="M795.585 593.234C795.585 593.234 794.678 592.919 792.365 587.954C790.053 582.989 799.473 599.02 799.473 599.02L795.585 593.234ZM795.585 593.234C795.585 593.234 800.676 598.924 810.361 605.969C820.046 613.013 832.426 617.683 847.502 619.977C862.578 622.272 879.844 615.377 895.905 605.969C911.966 596.561 912.031 598.736 896.1 612.494C880.169 626.253 862.414 634.716 846.23 631.206C830.045 627.696 817.266 621.143 807.893 611.547L795.585 593.234Z" stroke="black" stroke-width="5" stroke-linecap="round"/>
<g filter="url(#filter0_f_2210_18)">
<ellipse cx="569.5" cy="697" rx="59.5" ry="56" fill="#B23459" fill-opacity="0.52"/>
</g>
<g filter="url(#filter1_f_2210_18)">
<ellipse cx="954.5" cy="688" rx="59.5" ry="56" fill="#B23459" fill-opacity="0.52"/>
</g>
<defs>
<filter id="filter0_f_2210_18" x="412.2" y="543.2" width="314.6" height="307.6" filterUnits="userSpaceOnUse" color-interpolation-filters="sRGB">
<feFlood flood-opacity="0" result="BackgroundImageFix"/>
<feBlend mode="normal" in="SourceGraphic" in2="BackgroundImageFix" result="shape"/>
<feGaussianBlur stdDeviation="48.9" result="effect1_foregroundBlur_2210_18"/>
</filter>
<filter id="filter1_f_2210_18" x="797.2" y="534.2" width="314.6" height="307.6" filterUnits="userSpaceOnUse" color-interpolation-filters="sRGB">
<feFlood flood-opacity="0" result="BackgroundImageFix"/>
<feBlend mode="normal" in="SourceGraphic" in2="BackgroundImageFix" result="shape"/>
<feGaussianBlur stdDeviation="48.9" result="effect1_foregroundBlur_2210_18"/>
</filter>
</defs>
</svg>
