<svg width="27" height="27" viewBox="0 0 27 27" fill="none" xmlns="http://www.w3.org/2000/svg">
<path id="Vector" d="M18.6406 22.372L21.8545 20.5722L20.0548 23.7861L21.8545 27L18.6406 25.2002L15.4267 27L17.2265 23.7861L15.4267 20.5722L18.6406 22.372ZM3.2139 9.77348L0 11.5733L1.79979 8.35936L0 5.14546L3.2139 6.94524L6.42781 5.14546L4.62802 8.35936L6.42781 11.5733L3.2139 9.77348ZM0 27L1.79979 23.7861L0 20.5722L3.2139 22.372L6.42781 20.5722L4.62802 23.7861L6.42781 27L3.2139 25.2002L0 27ZM11.133 13.1416L7.99619 16.2784L10.7216 19.0038L13.8584 15.867L11.133 13.1416ZM9.80883 20.1994L6.80062 17.1912C6.29925 16.7155 6.29925 15.8799 6.80062 15.3785L21.8031 0.376026C22.3045 -0.125343 23.1401 -0.125343 23.6158 0.376026L26.624 3.38424C27.1253 3.8599 27.1253 4.69551 26.624 5.19688L11.6215 20.1994C11.1201 20.7007 10.2845 20.7007 9.80883 20.1994Z" fill="#2D231F"/>
</svg>
