<svg width="1484" height="1327" viewBox="0 0 1484 1327" fill="none" xmlns="http://www.w3.org/2000/svg">
<path d="M735.923 1042.09C1029.54 1038.19 1194.64 722.794 1055.86 464.012C924.465 219 564.995 229.064 430.368 472.315C291.224 723.726 448.601 1045.9 735.923 1042.09Z" fill="#BDAA8C"/>
<path d="M583.473 599.02C583.473 599.02 574.053 582.989 576.365 587.954C578.678 592.919 579.585 593.234 579.585 593.234C579.585 593.234 584.676 598.924 594.361 605.969C604.046 613.013 616.426 617.683 631.502 619.977C646.578 622.272 663.844 615.377 679.905 605.969C695.966 596.561 696.031 598.736 680.1 612.494C664.169 626.253 646.414 634.716 630.23 631.206C614.045 627.696 601.266 621.143 591.893 611.547L579.585 593.234L583.473 599.02Z" fill="black"/>
<path d="M579.585 593.234C579.585 593.234 578.678 592.919 576.365 587.954C574.053 582.989 583.473 599.02 583.473 599.02L579.585 593.234ZM579.585 593.234C579.585 593.234 584.676 598.924 594.361 605.969C604.046 613.013 616.426 617.683 631.502 619.977C646.578 622.272 663.844 615.377 679.905 605.969C695.966 596.561 696.031 598.736 680.1 612.494C664.169 626.253 646.414 634.716 630.23 631.206C614.045 627.696 601.266 621.143 591.893 611.547L579.585 593.234Z" stroke="black" stroke-width="5" stroke-linecap="round"/>
<path d="M799.473 599.02C799.473 599.02 790.053 582.989 792.365 587.954C794.678 592.919 795.585 593.234 795.585 593.234C795.585 593.234 800.676 598.924 810.361 605.969C820.046 613.013 832.426 617.683 847.502 619.977C862.578 622.272 879.844 615.377 895.905 605.969C911.966 596.561 912.031 598.736 896.1 612.494C880.169 626.253 862.414 634.716 846.23 631.206C830.045 627.696 817.266 621.143 807.893 611.547L795.585 593.234L799.473 599.02Z" fill="black"/>
<path d="M795.585 593.234C795.585 593.234 794.678 592.919 792.365 587.954C790.053 582.989 799.473 599.02 799.473 599.02L795.585 593.234ZM795.585 593.234C795.585 593.234 800.676 598.924 810.361 605.969C820.046 613.013 832.426 617.683 847.502 619.977C862.578 622.272 879.844 615.377 895.905 605.969C911.966 596.561 912.031 598.736 896.1 612.494C880.169 626.253 862.414 634.716 846.23 631.206C830.045 627.696 817.266 621.143 807.893 611.547L795.585 593.234Z" stroke="black" stroke-width="5" stroke-linecap="round"/>
<g filter="url(#filter0_f_2210_26)">
<ellipse cx="557.5" cy="697" rx="59.5" ry="56" fill="#B23459" fill-opacity="0.52"/>
</g>
<g filter="url(#filter1_f_2210_26)">
<ellipse cx="942.5" cy="688" rx="59.5" ry="56" fill="#B23459" fill-opacity="0.52"/>
</g>
<path d="M696.351 743.075C696.351 743.075 685.746 723.007 688.441 729.263C691.136 735.52 692.048 735.866 692.048 735.866C692.048 735.866 697.516 742.872 707.582 751.319C717.648 759.767 730.131 764.967 745.032 766.92C759.932 768.873 780.271 757.302 795.094 744.079C809.918 730.856 810.174 733.66 795.864 752.492C781.553 771.324 760.876 784.952 744.787 781.504C728.698 778.056 715.659 770.45 705.671 758.687L692.048 735.866L696.351 743.075Z" fill="black"/>
<path d="M692.048 735.866C692.048 735.866 691.136 735.52 688.441 729.263C685.746 723.007 696.351 743.075 696.351 743.075L692.048 735.866ZM692.048 735.866C692.048 735.866 697.516 742.872 707.582 751.319C717.648 759.767 730.131 764.967 745.032 766.92C759.932 768.873 780.271 757.302 795.094 744.079C809.918 730.856 810.174 733.66 795.864 752.492C781.553 771.324 760.876 784.952 744.787 781.504C728.698 778.056 715.659 770.45 705.671 758.687L692.048 735.866Z" stroke="black" stroke-width="5" stroke-linecap="round"/>
<g clip-path="url(#clip0_2210_26)">
<path d="M949.987 443.892C951.396 440.725 955.733 440.571 957.433 443.417L957.679 443.892L962.021 453.662C965.812 462.191 972.116 469.359 980.091 474.208L981.433 474.996L989.141 479.329C989.754 479.672 990.271 480.163 990.646 480.757C991.02 481.351 991.24 482.03 991.285 482.731C991.33 483.431 991.199 484.132 990.904 484.77C990.609 485.407 990.159 485.96 989.595 486.379L989.146 486.671L981.433 491.004C973.297 495.581 966.753 502.532 962.675 510.929L962.021 512.337L957.679 522.108C956.271 525.275 951.933 525.429 950.233 522.583L949.987 522.108L945.646 512.337C941.854 503.809 935.55 496.64 927.575 491.792L926.233 491.004L918.525 486.671C917.912 486.328 917.395 485.837 917.02 485.243C916.646 484.648 916.426 483.97 916.381 483.269C916.336 482.568 916.467 481.867 916.762 481.23C917.057 480.593 917.507 480.04 918.071 479.621L918.521 479.329L926.233 474.996C934.369 470.419 940.913 463.468 944.991 455.071L945.646 453.662L949.987 443.892ZM988.087 441.837C990.155 446.536 993.682 450.443 998.146 452.979C998.812 453.354 998.812 454.312 998.146 454.687C993.68 457.224 990.151 461.132 988.083 465.833C988.004 466.01 987.875 466.16 987.713 466.266C987.55 466.371 987.36 466.427 987.166 466.427C986.972 466.427 986.783 466.371 986.62 466.266C986.457 466.16 986.329 466.01 986.25 465.833C984.181 461.134 980.652 457.227 976.187 454.692C976.036 454.606 975.911 454.481 975.824 454.331C975.737 454.181 975.691 454.011 975.691 453.837C975.691 453.664 975.737 453.493 975.824 453.343C975.911 453.193 976.036 453.069 976.187 452.983C980.653 450.446 984.182 446.536 986.25 441.833C986.329 441.656 986.457 441.506 986.62 441.401C986.783 441.295 986.972 441.239 987.166 441.239C987.36 441.239 987.55 441.295 987.713 441.401C987.875 441.506 988.004 441.656 988.083 441.833L988.087 441.837Z" fill="#FEE89F"/>
</g>
<defs>
<filter id="filter0_f_2210_26" x="400.2" y="543.2" width="314.6" height="307.6" filterUnits="userSpaceOnUse" color-interpolation-filters="sRGB">
<feFlood flood-opacity="0" result="BackgroundImageFix"/>
<feBlend mode="normal" in="SourceGraphic" in2="BackgroundImageFix" result="shape"/>
<feGaussianBlur stdDeviation="48.9" result="effect1_foregroundBlur_2210_26"/>
</filter>
<filter id="filter1_f_2210_26" x="785.2" y="534.2" width="314.6" height="307.6" filterUnits="userSpaceOnUse" color-interpolation-filters="sRGB">
<feFlood flood-opacity="0" result="BackgroundImageFix"/>
<feBlend mode="normal" in="SourceGraphic" in2="BackgroundImageFix" result="shape"/>
<feGaussianBlur stdDeviation="48.9" result="effect1_foregroundBlur_2210_26"/>
</filter>
<clipPath id="clip0_2210_26">
<rect width="100" height="100" fill="white" transform="translate(908 433)"/>
</clipPath>
</defs>
</svg>
