<svg width="530" height="494" viewBox="0 0 530 494" fill="none" xmlns="http://www.w3.org/2000/svg">
<path d="M115.783 489.175C115.783 489.175 117.186 485.445 119.992 477.984C122.798 470.524 124.202 466.794 124.202 466.794C124.202 466.794 123.995 456.936 123.582 437.221C123.17 417.505 119.117 394.791 111.426 369.08C103.734 343.368 103.409 321.561 110.449 303.658C117.49 285.755 133.273 274.403 157.797 269.601C182.321 264.799 206.226 266.153 229.512 273.662C252.798 281.172 275.888 288.726 298.781 296.326C321.674 303.925 339.613 301.217 352.598 288.203C365.583 275.188 366.084 262.105 354.1 248.953C342.117 235.802 323.763 230.955 299.041 234.412C274.318 237.87 249.78 238.797 225.427 237.196C201.075 235.594 177.95 236.355 156.052 239.479C134.155 242.603 115.05 253.397 98.7379 271.863C82.4257 290.328 70.6233 298.169 63.3309 295.387C56.0384 292.605 53.391 278.193 55.3886 252.15C57.3862 226.107 63.3908 201.503 73.4024 178.339C83.4139 155.174 97.5329 135.725 115.759 119.993C133.986 104.26 154.444 91.8054 177.134 82.6289C199.823 73.4525 223.139 66.2004 247.079 60.8726C271.02 55.5448 294.848 53.8123 318.564 55.6751C342.279 57.5378 364.256 64.8984 384.494 77.7567C404.732 90.6151 417.76 108.239 423.579 130.627C429.397 153.016 429.059 177.299 422.564 203.476C416.069 229.653 416.902 252.436 425.063 271.826C433.224 291.215 448.483 299.935 470.84 297.986C493.198 296.037 509.532 284.532 519.844 263.471C530.156 242.41 530.317 220.377 520.33 197.372C510.342 174.367 494.578 155.857 473.038 141.843C451.498 127.828 428.806 118.965 404.963 115.253C381.12 111.541 357.521 112.549 334.165 118.277C310.81 124.005 287.895 131.696 265.42 141.349C242.945 151.003 232.036 159.936 232.693 168.149C233.349 176.362 245.826 182.359 270.122 186.143C294.419 189.926 316.353 197.267 335.923 208.166C355.493 219.065 363.537 232.927 360.055 249.75C356.573 266.573 343.362 275.305 320.423 275.943C297.484 276.582 273.334 274.565 247.975 269.892C222.616 265.219 199.243 267.858 177.857 277.808C156.47 287.759 147.6 299.459 151.246 312.91C154.893 326.36 157.261 337.941 158.352 347.652C159.443 357.364 154.001 371.73 142.026 390.749C130.051 409.769 127.177 431.77 133.404 456.754C139.632 481.737 145.976 482.881 152.436 460.187C158.897 437.492 171.501 418.354 190.249 402.771C208.997 387.188 223.303 369.987 233.169 351.167C243.034 332.348 241.087 317.106 227.328 305.442C213.569 293.778 195.187 292.307 172.182 301.029C149.177 309.752 137.05 322.285 135.801 338.629C134.552 354.974 141.698 361.503 157.239 358.218C172.78 354.932 190.101 347.684 209.202 336.472C228.302 325.261 249.697 323.658 273.387 331.664C297.077 339.669 320.293 346.01 343.035 350.687C365.778 355.363 385.538 350.626 402.315 336.475C419.091 322.324 428.187 302.324 429.601 276.476C431.016 250.628 424.091 228.605 408.827 210.407C393.563 192.208 381.146 187.509 371.578 196.309C362.01 205.109 364.386 215.455 378.705 227.347C393.024 239.239 406.845 237.307 420.168 221.552C433.49 205.797 434.377 188.759 422.827 170.439C411.277 152.119 392.521 141.498 366.558 138.576C340.596 135.654 314.774 134.165 289.093 134.11C263.413 134.054 238.929 136.207 215.643 140.568C192.356 144.928 179.674 155.071 177.597 170.994C175.52 186.918 184.76 198.359 205.315 205.316C225.871 212.273 247.866 210.934 271.301 201.298C294.735 191.662 318.77 183.871 343.404 177.924C368.039 171.977 391.96 172.855 415.167 180.557C438.374 188.26 456.297 189.421 468.934 184.04C481.572 178.66 486.64 163.654 484.14 139.021C481.639 114.389 472.277 93.6905 456.052 76.9265C439.828 60.1625 422.188 54.8094 403.131 60.8672C384.075 66.925 376.571 77.2644 380.62 91.8854C384.669 106.506 393.806 109.443 408.032 100.694C422.257 91.9461 425.366 76.6238 417.359 54.7276C409.351 32.8313 393.827 17.507 370.786 8.75468C347.745 0.00232704 324.945 -0.280854 302.385 7.90513C279.825 16.0911 268.292 28.4142 267.784 44.8744C267.277 61.3345 271.264 66.9956 279.746 61.8574C288.227 56.7193 285.875 46.6461 272.689 31.6379C259.502 16.6297 240.657 11.3031 216.154 15.6579C191.651 20.0128 171.977 31.7666 157.131 50.9195C142.286 70.0723 139.607 86.5043 149.094 100.216C158.581 113.927 165.609 115.162 170.18 103.92C174.75 92.6792 166.991 82.4036 146.902 73.0937C126.813 63.7839 105.239 63.8942 82.1802 73.4246C59.1216 82.9551 42.2922 98.3262 31.692 119.538C21.0918 140.75 20.5842 162.663 30.1692 185.277C39.7543 207.89 53.9913 219.456 72.8804 219.973C91.7695 220.49 99.9707 214.616 97.484 202.352C94.9974 190.087 83.4691 186.349 62.8993 191.138C42.3295 195.926 26.7188 209.133 16.0671 230.76C5.41546 252.388 0.989349 276.443 2.78884 302.926C4.58832 329.409 13.0493 351.422 28.1718 368.966C43.2944 386.509 60.2285 391.107 78.9744 382.759C97.7203 374.41 116.535 361.757 135.42 344.801C154.304 327.844 175.823 316.42 199.976 310.53C224.13 304.64 248.047 297.844 271.729 290.142C295.41 282.44 307.376 272.441 307.628 260.146C307.879 247.851 296.718 236.281 274.144 225.435C251.571 214.589 228.2 207.725 204.031 204.842C179.861 201.959 155.658 203.521 131.42 209.527C107.182 215.532 86.8214 226.481 70.3392 242.372C53.8569 258.263 45.6023 278.388 45.5753 302.747C45.5483 327.106 52.3104 351.131 65.8618 374.821C79.4131 398.51 90.7607 419.495 99.9045 437.774L115.783 489.175Z" stroke="#F7F7A0" stroke-width="3" stroke-linecap="round"/>
</svg>
