<svg width="528" height="490" viewBox="0 0 528 490" fill="none" xmlns="http://www.w3.org/2000/svg">
<path d="M114.783 488.175C114.783 488.175 116.186 484.445 118.992 476.984C121.798 469.524 123.202 465.794 123.202 465.794C123.202 465.794 122.995 455.936 122.582 436.221C122.17 416.505 118.117 393.791 110.426 368.08C102.734 342.368 102.409 320.561 109.449 302.658C116.49 284.755 132.273 273.403 156.797 268.601C181.32 263.799 205.226 265.153 228.512 272.662C251.798 280.172 274.888 287.726 297.781 295.326C320.674 302.925 338.613 300.217 351.598 287.203C364.583 274.188 365.084 261.105 353.1 247.953C341.117 234.802 322.763 229.955 298.041 233.412C273.318 236.87 248.78 237.797 224.427 236.196C200.075 234.594 176.95 235.355 155.052 238.479C133.155 241.603 114.05 252.397 97.7379 270.863C81.4257 289.328 69.6233 297.169 62.3308 294.387C55.0384 291.605 52.391 277.193 54.3886 251.15C56.3862 225.107 62.3908 200.503 72.4024 177.339C82.4139 154.174 96.5329 134.725 114.759 118.993C132.986 103.26 153.444 90.8054 176.133 81.6289C198.823 72.4525 222.139 65.2004 246.079 59.8726C270.02 54.5449 293.848 52.8123 317.564 54.6751C341.279 56.5378 363.256 63.8984 383.494 76.7567C403.732 89.6151 416.76 107.239 422.579 129.627C428.397 152.016 428.059 176.299 421.564 202.476C415.069 228.653 415.902 251.436 424.063 270.826C432.224 290.215 447.483 298.935 469.84 296.986C492.198 295.037 508.532 283.532 518.844 262.471C529.156 241.41 529.317 219.377 519.33 196.372C509.342 173.367 493.578 154.857 472.038 140.843C450.498 126.828 427.806 117.965 403.963 114.253C380.12 110.541 356.521 111.549 333.165 117.277C309.81 123.005 286.895 130.696 264.42 140.349C241.945 150.003 231.036 158.936 231.693 167.149C232.349 175.362 244.826 181.36 269.122 185.143C293.419 188.926 315.353 196.267 334.923 207.166C354.493 218.065 362.537 231.927 359.055 248.75C355.573 265.573 342.362 274.305 319.423 274.943C296.484 275.582 272.334 273.565 246.975 268.892C221.616 264.219 198.243 266.858 176.857 276.808C155.47 286.759 146.6 298.459 150.246 311.91C153.893 325.36 156.261 336.941 157.352 346.652C158.443 356.364 153.001 370.73 141.026 389.749C129.05 408.769 126.177 430.77 132.404 455.754C138.632 480.737 144.976 481.881 151.436 459.187C157.897 436.492 170.501 417.354 189.249 401.771C207.997 386.188 222.303 368.987 232.169 350.167C242.034 331.348 240.087 316.106 226.328 304.442C212.569 292.778 194.187 291.307 171.182 300.029C148.177 308.752 136.05 321.285 134.801 337.629C133.552 353.974 140.698 360.503 156.239 357.218C171.78 353.932 189.101 346.684 208.202 335.472C227.302 324.261 248.697 322.658 272.387 330.664C296.077 338.669 319.293 345.011 342.035 349.687C364.778 354.363 384.538 349.626 401.315 335.475C418.091 321.324 427.187 301.324 428.601 275.476C430.016 249.628 423.091 227.605 407.827 209.407C392.563 191.208 380.146 186.509 370.578 195.309C361.01 204.109 363.386 214.455 377.705 226.347C392.024 238.239 405.845 236.307 419.168 220.552C432.49 204.797 433.377 187.759 421.827 169.439C410.277 151.119 391.521 140.498 365.558 137.576C339.595 134.654 313.774 133.165 288.093 133.11C262.413 133.054 237.929 135.207 214.643 139.568C191.356 143.928 178.674 154.071 176.597 169.994C174.52 185.918 183.76 197.359 204.315 204.316C224.871 211.273 246.866 209.934 270.301 200.298C293.735 190.662 317.77 182.871 342.404 176.924C367.039 170.977 390.96 171.855 414.167 179.557C437.374 187.26 455.297 188.421 467.934 183.041C480.572 177.66 485.64 162.654 483.14 138.021C480.639 113.389 471.277 92.6905 455.052 75.9265C438.828 59.1625 421.188 53.8094 402.131 59.8672C383.075 65.925 375.571 76.2644 379.62 90.8854C383.669 105.506 392.806 108.443 407.032 99.6944C421.257 90.9461 424.366 75.6238 416.359 53.7276C408.351 31.8313 392.827 16.507 369.786 7.75468C346.745 -0.997671 323.945 -1.28085 301.385 6.90513C278.825 15.0911 267.292 27.4142 266.784 43.8744C266.277 60.3345 270.264 65.9956 278.746 60.8574C287.227 55.7193 284.875 45.6461 271.689 30.6379C258.502 15.6297 239.657 10.3031 215.154 14.6579C190.651 19.0128 170.977 30.7666 156.131 49.9195C141.286 69.0723 138.607 85.5044 148.094 99.2156C157.581 112.927 164.609 114.162 169.18 102.92C173.75 91.6792 165.991 81.4036 145.902 72.0937C125.813 62.7839 104.239 62.8942 81.1802 72.4246C58.1215 81.9551 41.2921 97.3262 30.692 118.538C20.0918 139.75 19.5842 161.663 29.1692 184.277C38.7542 206.89 52.9913 218.456 71.8803 218.973C90.7694 219.49 98.9706 213.616 96.484 201.352C93.9974 189.087 82.4691 185.349 61.8993 190.138C41.3295 194.926 25.7188 208.133 15.0671 229.761C4.41542 251.388 -0.010666 275.443 1.78882 301.926C3.58831 328.409 12.0493 350.422 27.1718 367.966C42.2943 385.509 59.2285 390.107 77.9744 381.759C96.7202 373.41 115.535 360.757 134.42 343.801C153.304 326.844 174.823 315.42 198.976 309.53C223.13 303.64 247.047 296.844 270.729 289.142C294.41 281.44 306.376 271.441 306.628 259.146C306.879 246.851 295.718 235.281 273.144 224.435C250.571 213.589 227.2 206.725 203.03 203.842C178.861 200.959 154.658 202.521 130.42 208.527C106.182 214.533 85.8214 225.481 69.3391 241.372C52.8569 257.263 44.6023 277.388 44.5753 301.747C44.5482 326.106 51.3104 350.131 64.8618 373.821C78.4131 397.51 89.7606 418.495 98.9044 436.774L114.783 488.175Z" stroke="white" stroke-linecap="round"/>
</svg>
