<svg width="530" height="497" viewBox="0 0 530 497" fill="none" xmlns="http://www.w3.org/2000/svg">
<path d="M115.783 490.175C115.783 490.175 117.186 486.445 119.992 478.984C122.799 471.524 124.202 467.794 124.202 467.794C124.202 467.794 123.995 457.936 123.583 438.221C123.17 418.505 119.118 395.791 111.426 370.08C103.734 344.368 103.409 322.561 110.45 304.658C117.49 286.755 133.273 275.403 157.797 270.601C182.321 265.799 206.226 267.153 229.512 274.663C252.798 282.172 275.888 289.726 298.781 297.326C321.674 304.925 339.613 302.217 352.598 289.203C365.583 276.188 366.084 263.105 354.1 249.953C342.117 236.802 323.763 231.955 299.041 235.412C274.318 238.87 249.78 239.797 225.428 238.196C201.075 236.594 177.95 237.355 156.053 240.479C134.155 243.603 115.05 254.397 98.7381 272.863C82.4258 291.328 70.6234 299.169 63.3309 296.387C56.0385 293.605 53.3911 279.193 55.3887 253.15C57.3863 227.107 63.3909 202.503 73.4025 179.339C83.4141 156.174 97.533 136.725 115.759 120.993C133.986 105.26 154.444 92.8054 177.134 83.6289C199.823 74.4525 223.139 67.2004 247.079 61.8726C271.02 56.5449 294.848 54.8123 318.564 56.6751C342.28 58.5378 364.256 65.8984 384.494 78.7567C404.732 91.6151 417.76 109.239 423.579 131.627C429.397 154.016 429.059 178.299 422.564 204.476C416.069 230.653 416.902 253.436 425.063 272.826C433.224 292.215 448.483 300.935 470.84 298.986C493.198 297.037 509.533 285.532 519.844 264.471C530.156 243.41 530.318 221.377 520.33 198.372C510.342 175.367 494.578 156.857 473.038 142.843C451.498 128.828 428.806 119.965 404.963 116.253C381.12 112.541 357.521 113.549 334.166 119.277C310.81 125.005 287.895 132.696 265.42 142.349C242.946 152.003 232.036 160.936 232.693 169.149C233.349 177.362 245.826 183.359 270.122 187.143C294.419 190.926 316.353 198.267 335.923 209.166C355.493 220.065 363.537 233.927 360.055 250.75C356.573 267.573 343.362 276.305 320.423 276.943C297.484 277.582 273.334 275.565 247.975 270.892C222.616 266.219 199.243 268.858 177.857 278.808C156.47 288.759 147.6 300.459 151.246 313.91C154.893 327.36 157.261 338.941 158.352 348.652C159.443 358.364 154.001 372.73 142.026 391.749C130.051 410.769 127.177 432.77 133.404 457.754C139.632 482.737 145.976 483.881 152.436 461.187C158.897 438.492 171.501 419.354 190.249 403.771C208.997 388.188 223.304 370.987 233.169 352.167C243.034 333.348 241.087 318.106 227.328 306.442C213.569 294.778 195.187 293.307 172.182 302.029C149.177 310.752 137.05 323.285 135.801 339.629C134.552 355.974 141.698 362.503 157.239 359.218C172.78 355.932 190.101 348.684 209.202 337.472C228.302 326.261 249.697 324.658 273.387 332.664C297.077 340.669 320.293 347.011 343.035 351.687C365.778 356.363 385.538 351.626 402.315 337.475C419.092 323.324 428.187 303.324 429.602 277.476C431.016 251.628 424.091 229.605 408.827 211.407C393.563 193.208 381.147 188.509 371.578 197.309C362.01 206.109 364.386 216.455 378.705 228.347C393.024 240.239 406.845 238.307 420.168 222.552C433.491 206.797 434.377 189.759 422.827 171.439C411.278 153.119 392.521 142.498 366.558 139.576C340.596 136.654 314.774 135.165 289.094 135.11C263.413 135.054 238.929 137.207 215.643 141.568C192.356 145.928 179.674 156.071 177.597 171.994C175.52 187.918 184.76 199.359 205.315 206.316C225.871 213.273 247.866 211.934 271.301 202.298C294.735 192.662 318.77 184.871 343.405 178.924C368.039 172.977 391.96 173.855 415.167 181.557C438.374 189.26 456.297 190.421 468.934 185.041C481.572 179.66 486.64 164.654 484.14 140.021C481.639 115.389 472.277 94.6905 456.053 77.9265C439.828 61.1625 422.188 55.8094 403.131 61.8672C384.075 67.925 376.571 78.2644 380.62 92.8854C384.669 107.506 393.806 110.443 408.032 101.694C422.257 92.9461 425.366 77.6238 417.359 55.7276C409.352 33.8313 393.827 18.507 370.786 9.75468C347.745 1.00233 324.945 0.719148 302.385 8.90514C279.825 17.0911 268.292 29.4142 267.784 45.8744C267.277 62.3345 271.264 67.9956 279.746 62.8574C288.228 57.7193 285.875 47.6461 272.689 32.6379C259.502 17.6297 240.657 12.3031 216.154 16.6579C191.651 21.0128 171.977 32.7666 157.131 51.9195C142.286 71.0723 139.607 87.5044 149.094 101.216C158.581 114.927 165.61 116.162 170.18 104.92C174.75 93.6792 166.991 83.4036 146.902 74.0937C126.813 64.7839 105.239 64.8942 82.1803 74.4246C59.1217 83.9551 42.2923 99.3262 31.6921 120.538C21.0919 141.75 20.5843 163.663 30.1693 186.277C39.7543 208.89 53.9914 220.456 72.8805 220.973C91.7695 221.49 99.9708 215.616 97.4841 203.352C94.9975 191.087 83.4692 187.349 62.8994 192.138C42.3296 196.926 26.7189 210.133 16.0672 231.761C5.41553 253.388 0.989474 277.443 2.78896 303.926C4.58845 330.409 13.0494 352.422 28.1719 369.966C43.2944 387.51 60.2286 392.107 78.9745 383.759C97.7204 375.41 116.535 362.757 135.42 345.801C154.304 328.844 175.823 317.42 199.976 311.53C224.13 305.64 248.047 298.844 271.729 291.142C295.41 283.44 307.376 273.441 307.628 261.146C307.879 248.851 296.718 237.281 274.144 226.435C251.571 215.589 228.2 208.725 204.031 205.842C179.862 202.959 155.658 204.521 131.42 210.527C107.182 216.533 86.8215 227.481 70.3393 243.372C53.857 259.263 45.6024 279.388 45.5754 303.747C45.5484 328.106 52.3105 352.131 65.8619 375.821C79.4132 399.51 90.7608 420.495 99.9046 438.774L115.783 490.175Z" stroke="white" stroke-width="4" stroke-linecap="round"/>
</svg>
