<svg width="219" height="181" viewBox="0 0 219 181" fill="none" xmlns="http://www.w3.org/2000/svg">
<path d="M6.698 94.4641C22.1382 99.1409 50.9151 119.234 66.0946 123.967C81.274 128.699 93.1688 127.013 101.779 118.908C110.389 110.803 110.721 102.655 102.775 94.4641C94.829 86.2736 82.6597 83.255 66.267 85.4083C49.8743 87.5616 21.2722 82.8585 5.12478 81.8609M148.171 0.860374C152.029 14.8035 152.477 49.8393 148.171 66.1418C143.864 82.4444 144.416 96.6333 149.828 108.709C155.239 120.784 165.356 126.215 180.181 125.001C195.005 123.787 205.836 116.622 212.673 103.505C219.511 90.389 219.618 76.6673 212.996 62.3403C206.373 48.0133 195.921 36.4859 181.638 27.7581C167.356 19.0303 152.31 13.5105 136.5 11.1988C120.691 8.88708 105.043 9.51481 89.5569 13.082C74.0709 16.6492 58.8767 21.4388 43.9745 27.451C29.0723 33.4631 21.8388 39.0265 22.274 44.1411C22.7092 49.2558 30.982 52.9911 47.0924 55.3471C63.2027 57.7031 77.746 62.275 90.7223 69.0628C103.699 75.8505 109.032 84.4831 106.723 94.9603C104.414 105.438 95.6549 110.875 80.4447 111.273C65.2346 111.671 21.9396 123.026 5.12479 120.115M5.1248 180.5C17.5559 170.795 16.0485 169.841 22.5898 158.121C29.131 146.4 15.8212 114.624 6.698 107.36M6.69801 148.969C19.3628 141.987 33.549 140.989 49.2569 145.974C64.9647 150.96 80.3585 154.909 95.4382 157.822C110.518 160.734 123.62 157.784 134.744 148.971C145.868 140.158 151.899 127.702 152.837 111.605C153.775 95.5072 149.183 81.7917 139.062 70.4582C128.941 59.1247 120.708 56.1982 114.364 61.6786C108.02 67.1591 109.595 73.6022 119.089 81.0082C128.584 88.4141 137.748 87.2111 146.582 77.3992C155.416 67.5872 156.003 56.9766 148.345 45.5674C140.687 34.1582 128.25 27.5436 111.035 25.7237C93.8204 23.9037 76.6991 22.9766 59.6713 22.9421C42.6436 22.9077 20.5654 25.0424 5.12479 27.7581M167.125 2.13208C181.638 0.860861 187.341 10.6605 188.999 26.001C190.657 41.3416 187.297 50.6872 178.917 54.038C170.538 57.3887 158.654 56.6656 143.266 51.8686C127.878 47.0717 112.017 46.525 95.6829 50.2286C79.3488 53.9322 63.4123 58.7845 47.8736 64.7855C32.3348 70.7865 20.3276 71.7484 6.698 67.4156C22.7236 69.2109 34.7915 73.0629 49.7591 79.8175C64.7268 86.5721 72.1273 93.778 71.9607 101.435C71.794 109.092 63.8596 115.319 48.1574 120.115C32.4552 124.912 16.5964 129.144 0.581094 132.813M119.089 0.860862C121.774 9.96648 129.103 7.5802 138.535 2.13195" stroke="white" stroke-linecap="round"/>
</svg>
