<svg width="100" height="100" viewBox="0 0 100 100" fill="none" xmlns="http://www.w3.org/2000/svg">
<g clip-path="url(#clip0_33_328)">
<path d="M40.6862 15.5136C42.0556 12.5128 46.2733 12.3667 47.9263 15.0635L48.1654 15.5136L52.3871 24.7725C56.0734 32.8545 62.2038 39.6471 69.9585 44.242L71.2631 44.9882L78.7585 49.0946C79.3543 49.4196 79.8572 49.8849 80.2213 50.4479C80.5855 51.0109 80.7992 51.6537 80.8431 52.3179C80.887 52.982 80.7597 53.6463 80.4727 54.2501C80.1857 54.854 79.7482 55.3783 79.2001 55.7752L78.7625 56.0516L71.2631 60.1579C63.352 64.4946 56.9883 71.082 53.0231 79.039L52.3871 80.3736L48.1654 89.6325C46.7959 92.6333 42.5783 92.7794 40.9253 90.0827L40.6862 89.6325L36.4645 80.3736C32.7782 72.2916 26.6477 65.499 18.893 60.9041L17.5885 60.1579L10.0931 56.0516C9.49726 55.7265 8.99435 55.2613 8.63023 54.6983C8.26612 54.1353 8.05237 53.4924 8.00847 52.8283C7.96456 52.1642 8.09191 51.4999 8.37889 50.896C8.66587 50.2921 9.10337 49.7678 9.6515 49.3709L10.0891 49.0946L17.5885 44.9882C25.4995 40.6515 31.8633 34.0641 35.8284 26.1071L36.4645 24.7725L40.6862 15.5136Z" fill="#F7F7A0"/>
</g>
<defs>
<clipPath id="clip0_33_328">
<rect width="100" height="100" fill="white"/>
</clipPath>
</defs>
</svg>
