<svg width="100" height="100" viewBox="0 0 100 100" fill="none" xmlns="http://www.w3.org/2000/svg">
<g clip-path="url(#clip0_33_332)">
<path d="M41.9875 10.8917C43.3958 7.725 47.7333 7.57084 49.4333 10.4167L49.6792 10.8917L54.0208 20.6625C57.812 29.1913 64.1166 36.3594 72.0917 41.2083L73.4333 41.9958L81.1417 46.3292C81.7545 46.6722 82.2717 47.1632 82.6461 47.7573C83.0206 48.3515 83.2404 49.0298 83.2856 49.7307C83.3307 50.4315 83.1997 51.1325 82.9046 51.7698C82.6095 52.407 82.1595 52.9603 81.5958 53.3792L81.1458 53.6708L73.4333 58.0042C65.2974 62.5806 58.7529 69.5322 54.675 77.9292L54.0208 79.3375L49.6792 89.1083C48.2708 92.275 43.9333 92.4292 42.2333 89.5833L41.9875 89.1083L37.6458 79.3375C33.8547 70.8087 27.5501 63.6406 19.575 58.7917L18.2333 58.0042L10.525 53.6708C9.91221 53.3278 9.39501 52.8368 9.02055 52.2427C8.64608 51.6485 8.42626 50.9702 8.38111 50.2693C8.33596 49.5685 8.46693 48.8675 8.76206 48.2302C9.0572 47.593 9.50713 47.0397 10.0708 46.6208L10.5208 46.3292L18.2333 41.9958C26.3693 37.4194 32.9138 30.4678 36.9917 22.0708L37.6458 20.6625L41.9875 10.8917ZM80.0875 8.8375C82.1553 13.5362 85.6824 17.4432 90.1458 19.9792C90.8125 20.3542 90.8125 21.3125 90.1458 21.6875C85.6802 24.2238 82.1514 28.1325 80.0833 32.8333C80.0042 33.0103 79.8755 33.1605 79.7129 33.266C79.5502 33.3714 79.3605 33.4275 79.1667 33.4275C78.9728 33.4275 78.7831 33.3714 78.6205 33.266C78.4578 33.1605 78.3291 33.0103 78.25 32.8333C76.1812 28.1341 72.6525 24.2269 68.1875 21.6917C68.0368 21.6057 67.9115 21.4814 67.8244 21.3314C67.7373 21.1814 67.6914 21.011 67.6914 20.8375C67.6914 20.664 67.7373 20.4936 67.8244 20.3436C67.9115 20.1936 68.0368 20.0693 68.1875 19.9833C72.6538 17.4459 76.1826 13.5357 78.25 8.83333C78.3291 8.65638 78.4578 8.50612 78.6205 8.40068C78.7831 8.29524 78.9728 8.23914 79.1667 8.23914C79.3605 8.23914 79.5502 8.29524 79.7129 8.40068C79.8755 8.50612 80.0042 8.65638 80.0833 8.83333L80.0875 8.8375Z" fill="#F5F5A0"/>
</g>
<defs>
<clipPath id="clip0_33_332">
<rect width="100" height="100" fill="white"/>
</clipPath>
</defs>
</svg>
