<svg width="64" height="55" viewBox="0 0 64 55" fill="none" xmlns="http://www.w3.org/2000/svg">
<path d="M32 0C24.3818 0 17.1332 3.36077 11.4674 8.96446L13.7565 10.073C19.1474 4.96502 25.705 1.87805 32 1.87805C38.2961 1.87805 44.8558 4.96301 50.2476 10.0709L52.5328 8.96446C46.8668 3.36077 39.6184 0 32 0ZM9.72163 10.8192C4.03533 17.3078 0.30684 26.2275 0.0270129 36.2195H1.96945C2.27768 26.7425 6.17032 18.3391 11.6653 12.2199C11.7616 12.1126 11.8597 12.0076 11.9571 11.9016L9.72149 10.8193L9.72163 10.8192ZM54.2784 10.8192L52.0471 11.8997C52.143 12.0041 52.2397 12.1074 52.3347 12.2131C57.83 18.3306 61.7226 26.734 62.0307 36.2195H63.9731C63.6933 26.2275 59.9648 17.3078 54.2785 10.8192H54.2784ZM14.2742 28.4122C13.7914 28.4104 13.3073 28.5568 13.2987 28.8703L13.2987 54.5976C13.2987 55.1341 15.2381 55.1341 15.2381 54.5976L15.2381 28.8415C15.2381 28.5632 14.757 28.4135 14.2739 28.4122H14.2742ZM49.7259 28.4122C49.2429 28.4135 48.7618 28.5632 48.7618 28.8415V54.5976C48.7618 55.1341 50.7012 55.1341 50.7012 54.5976V28.8703C50.6928 28.5568 50.2084 28.4106 49.7259 28.4122ZM10.8052 30.1467C8.64097 30.4677 7.25278 31.6438 6.21534 33.4521C4.99006 35.5882 4.4329 38.6341 4.4329 41.7195C4.4329 44.8049 4.99006 47.8509 6.21534 49.987C7.25292 51.7952 8.64097 52.9713 10.8052 53.2923L10.8052 30.1467ZM53.1948 30.1467V53.2923C55.359 52.9713 56.7472 51.7952 57.7847 49.987C59.0099 47.8508 59.5671 44.8049 59.5671 41.7195C59.5671 38.6341 59.0099 35.5881 57.7847 33.4521C56.7471 31.6438 55.359 30.4677 53.1948 30.1467ZM0 38.6341L0 44.8049H1.93939L1.93939 38.6341H0ZM62.0606 38.6341V44.8049H64V38.6341H62.0606Z" fill="black"/>
</svg>
