<svg width="52" height="53" viewBox="0 0 52 53" fill="none" xmlns="http://www.w3.org/2000/svg">
<path d="M4.4 26.5C15.2 26.5 26 15.475 26 4.45C26 15.475 36.8 26.5 47.6 26.5C36.8 26.5 26 37.525 26 48.55C26 37.525 15.2 26.5 4.4 26.5ZM2 44.875C3.9992 44.875 8 40.7909 8 38.75C8 40.7909 12.0008 44.875 14 44.875C12.0008 44.875 8 48.9592 8 51C8 48.9592 3.9992 44.875 2 44.875ZM35.6 9.35C38 9.35 42.8 4.45 42.8 2C42.8 4.45 47.6 9.35 50 9.35C47.6 9.35 42.8 14.25 42.8 16.7C42.8 14.25 38 9.35 35.6 9.35Z" stroke="black" stroke-width="3" stroke-linecap="round" stroke-linejoin="round"/>
</svg>
