<svg width="100" height="67" viewBox="0 0 100 67" fill="none" xmlns="http://www.w3.org/2000/svg">
<path d="M67.11 25.791L43.11 13.0291C42.8087 12.8688 42.4585 12.7767 42.0968 12.7627C41.735 12.7488 41.3753 12.8134 41.056 12.9497C40.7367 13.0861 40.4699 13.289 40.2839 13.5369C40.0979 13.7848 39.9998 14.0683 40 14.3571V39.881C39.9996 40.1698 40.0975 40.4533 40.2833 40.7013C40.4691 40.9492 40.7358 41.1523 41.055 41.2887C41.3745 41.4252 41.7344 41.4898 42.0963 41.4758C42.4583 41.4618 42.8087 41.3695 43.11 41.209L67.11 28.4471C67.3843 28.3015 67.6093 28.104 67.7649 27.8723C67.9205 27.6407 68.002 27.3819 68.002 27.119C68.002 26.8562 67.9205 26.5974 67.7649 26.3658C67.6093 26.1341 67.3843 25.9366 67.11 25.791ZM44 36.9018V17.3363L62.395 27.119L44 36.9018ZM94 0H6C4.4087 0 2.88258 0.504207 1.75736 1.4017C0.632141 2.2992 0 3.51646 0 4.78571V49.4524C0 50.7216 0.632141 51.9389 1.75736 52.8364C2.88258 53.7339 4.4087 54.2381 6 54.2381H94C95.5913 54.2381 97.1174 53.7339 98.2426 52.8364C99.3679 51.9389 100 50.7216 100 49.4524V4.78571C100 3.51646 99.3679 2.2992 98.2426 1.4017C97.1174 0.504207 95.5913 0 94 0ZM96 49.4524C96 49.8755 95.7893 50.2812 95.4142 50.5804C95.0391 50.8796 94.5304 51.0476 94 51.0476H6C5.46957 51.0476 4.96086 50.8796 4.58579 50.5804C4.21071 50.2812 4 49.8755 4 49.4524V4.78571C4 4.36263 4.21071 3.95688 4.58579 3.65771C4.96086 3.35855 5.46957 3.19048 6 3.19048H94C94.5304 3.19048 95.0391 3.35855 95.4142 3.65771C95.7893 3.95688 96 4.36263 96 4.78571V49.4524ZM100 65.4048C100 65.8278 99.7893 66.2336 99.4142 66.5328C99.0391 66.8319 98.5304 67 98 67H2C1.46957 67 0.96086 66.8319 0.585787 66.5328C0.210714 66.2336 0 65.8278 0 65.4048C0 64.9817 0.210714 64.5759 0.585787 64.2768C0.96086 63.9776 1.46957 63.8095 2 63.8095H98C98.5304 63.8095 99.0391 63.9776 99.4142 64.2768C99.7893 64.5759 100 64.9817 100 65.4048Z" fill="black"/>
</svg>
