<?xml version="1.0" encoding="UTF-8"?>
<svg version="1.1" xmlns="http://www.w3.org/2000/svg" width="670" height="372">
<path d="M0 0 C5.79910809 -0.00558601 11.59799317 -0.0298976 17.39702988 -0.05797195 C21.89211732 -0.07650298 26.38714838 -0.0817978 30.88227081 -0.08333588 C33.0241855 -0.08636173 35.16609921 -0.09438797 37.30797577 -0.10752106 C40.26930492 -0.12445273 43.23004927 -0.12273857 46.19140625 -0.11621094 C47.0721582 -0.12542572 47.95291016 -0.1346405 48.86035156 -0.14413452 C51.28704834 -0.1272583 51.28704834 -0.1272583 55.12207031 0.24023438 C55.78207031 1.23023438 56.44207031 2.22023437 57.12207031 3.24023438 C59.34139308 3.74799481 59.34139308 3.74799481 61.91113281 3.75195312 C62.85214844 3.78740234 63.79316406 3.82285156 64.76269531 3.859375 C65.74753906 3.88193359 66.73238281 3.90449219 67.74707031 3.92773438 C69.2359375 3.97897461 69.2359375 3.97897461 70.75488281 4.03125 C73.21049938 4.11389094 75.66575172 4.18298564 78.12207031 4.24023438 C80.12988281 8.90429688 80.12988281 8.90429688 80.05957031 11.92773438 C79.12207031 14.24023438 79.12207031 14.24023438 77.10253906 15.25585938 C73.28068559 16.51812291 69.42188201 17.42199591 65.49707031 18.30273438 C59.75970396 19.58464374 59.75970396 19.58464374 54.12207031 21.24023438 C51.8938859 21.309605 49.66372507 21.32480521 47.43457031 21.30273438 C45.66533203 21.28919922 45.66533203 21.28919922 43.86035156 21.27539062 C42.95671875 21.26378906 42.05308594 21.2521875 41.12207031 21.24023438 C40.99832031 21.87960938 40.87457031 22.51898438 40.74707031 23.17773438 C40.43769531 24.19867188 40.43769531 24.19867188 40.12207031 25.24023438 C35.6850034 27.45876783 29.63053623 26.42607201 24.69604492 26.42553711 C22.48823527 26.42768223 20.28096052 26.44571533 18.07324219 26.46484375 C9.8472769 26.49680431 2.02469617 25.90828308 -6.13061523 24.70532227 C-12.88986763 23.86641577 -19.64002366 23.84644897 -26.44042969 23.86523438 C-27.23593231 23.86611053 -28.03143494 23.86698669 -28.8510437 23.8678894 C-125.74591647 24.2090145 -222.87098499 41.94752527 -337.39772224 71.86372185 C-338.71331218 72.20988757 -340.02909063 72.55533768 -341.34506035 72.90005684 C-347.34250462 74.47110872 -353.33078044 76.04529699 -359.26220703 77.85180664 C-368.93457978 80.78865739 -377.39524845 81.89635325 -387.50292969 81.55273438 C-388.80488281 81.53017578 -390.10683594 81.50761719 -391.44824219 81.484375 C-394.59279787 81.42657067 -397.73465765 81.34518233 -400.87792969 81.24023438 C-401.09967902 79.78388067 -401.30491666 78.32500481 -401.50292969 76.86523438 C-401.61894531 76.053125 -401.73496094 75.24101562 -401.85449219 74.40429688 C-401.86222656 73.69015625 -401.86996094 72.97601563 -401.87792969 72.24023438 C-398.54346517 68.90576986 -393.84768695 68.56141691 -389.35839844 67.43554688 C-385.89019953 66.47236469 -385.89019953 66.47236469 -383.62329102 64.37963867 C-380.45202383 61.90833459 -377.14320243 60.37049735 -373.47167969 58.81445312 C-372.75917557 58.50599457 -372.04667145 58.19753601 -371.31257629 57.87973022 C-369.00520525 56.88561003 -366.69242674 55.90514012 -364.37792969 54.92773438 C-363.58494476 54.59119843 -362.79195984 54.25466248 -361.97494507 53.90792847 C-311.41247838 32.49516728 -255.93968944 23.31852153 -201.87792969 15.24023438 C-200.88992371 15.09199219 -199.90191772 14.94375 -198.88397217 14.79101562 C-164.6916515 9.66871284 -130.56021295 5.01318529 -96.06542969 2.55273438 C-95.22264465 2.49170532 -94.37985962 2.43067627 -93.51153564 2.36779785 C-62.36979821 0.14998413 -31.20513463 0.02569918 0 0 Z " fill="#F6F6A0" transform="translate(495.8779296875,142.759765625)"/>
<path d="M0 0 C1.61674968 -0.00424107 1.61674968 -0.00424107 3.26616096 -0.00856781 C8.92898917 -0.02333431 14.59179321 -0.03271469 20.25463867 -0.03710938 C26.09312567 -0.04267819 31.93138923 -0.06694165 37.76980495 -0.09508133 C42.28634843 -0.11362103 46.80283581 -0.11890782 51.31941414 -0.12044525 C53.47528417 -0.12347306 55.63115319 -0.13150588 57.7869854 -0.14463043 C60.77280648 -0.16156831 63.75804772 -0.15984542 66.74389648 -0.15332031 C68.07680725 -0.16714249 68.07680725 -0.16714249 69.43664551 -0.1812439 C71.88523865 -0.16436768 71.88523865 -0.16436768 75.75390625 0.203125 C76.74390625 1.688125 76.74390625 1.688125 77.75390625 3.203125 C80.17912119 3.78501766 80.17912119 3.78501766 82.87890625 3.890625 C84.24402344 3.98923828 84.24402344 3.98923828 85.63671875 4.08984375 C86.33539062 4.12722656 87.0340625 4.16460937 87.75390625 4.203125 C87.75390625 4.533125 87.75390625 4.863125 87.75390625 5.203125 C83.79390625 5.203125 79.83390625 5.203125 75.75390625 5.203125 C75.25890625 4.213125 75.25890625 4.213125 74.75390625 3.203125 C33.83390625 2.873125 -7.08609375 2.543125 -49.24609375 2.203125 C-49.24609375 1.873125 -49.24609375 1.543125 -49.24609375 1.203125 C-32.82518893 0.44169223 -16.43788476 0.0297935 0 0 Z " fill="#F4F4B1" transform="translate(475.24609375,142.796875)"/>
<path d="M0 0 C-1.33333333 0.66666667 -2.66666667 1.33333333 -4 2 C-5.423125 2.804375 -5.423125 2.804375 -6.875 3.625 C-10.2186189 5.09619232 -12.39813182 5.16752875 -16 5 C-16.33 5.33 -16.66 5.66 -17 6 C-22.30621203 7.36902269 -27.50414765 8.28925539 -33 8 C-28.00411431 5.27149479 -22.55195466 4.23355065 -17.0625 2.875 C-15.97775391 2.59785156 -14.89300781 2.32070312 -13.77539062 2.03515625 C-12.72673828 1.77347656 -11.67808594 1.51179687 -10.59765625 1.2421875 C-9.64383057 1.0035498 -8.69000488 0.76491211 -7.70727539 0.51904297 C-5.06405998 0.01228168 -2.68339265 -0.09689098 0 0 Z " fill="#F6F6B8" transform="translate(208,175)"/>
<path d="M0 0 C2.475 0.495 2.475 0.495 5 1 C5.9765625 7.0546875 5.9765625 7.0546875 6 9 C5.34 9.66 4.68 10.32 4 11 C1.875 10.625 1.875 10.625 0 10 C0.99 7.69 1.98 5.38 3 3 C2.01 2.67 1.02 2.34 0 2 C0 1.34 0 0.68 0 0 Z " fill="#F4F5AE" transform="translate(570,147)"/>
<path d="M0 0 C-3.3523056 2.96230965 -6.40986554 3.77607176 -10.75 4.6875 C-12.50570312 5.06455078 -12.50570312 5.06455078 -14.296875 5.44921875 C-15.18890625 5.63097656 -16.0809375 5.81273437 -17 6 C-12.87434132 1.30936258 -6.15633202 -0.59577407 0 0 Z " fill="#F4F5B3" transform="translate(166,186)"/>
</svg>
