<svg xmlns="http://www.w3.org/2000/svg" width="180" height="180" viewBox="0 0 180 180">
  <!-- Background circle -->
  <circle cx="90" cy="90" r="90" fill="#695E91" />
  
  <!-- Letter "i" -->
  <g transform="translate(54, 36.5)">
    <path d="M45 7.64556C45 4.82733 43.1719 2.24794 40.2469 0.910472C37.3219 -0.426992 33.7781 -0.283691 31.0219 1.29261L4.02187 16.5779C-0.140625 18.9185 -1.2375 23.6474 1.51875 27.1821C4.275 30.7168 9.87187 31.6483 14.0062 29.3077L27 21.9278V91.7147H9C4.02187 91.7147 0 95.13 0 99.3574C0 103.585 4.02187 107 9 107H63C67.9781 107 72 103.585 72 99.3574C72 95.13 67.9781 91.7147 63 91.7147H45V7.64556Z" fill="#C7C2D9" />
  </g>
</svg>