<svg xmlns="http://www.w3.org/2000/svg" width="180" height="180" viewBox="0 0 180 180">
  <!-- Background circle -->
  <circle cx="90" cy="90" r="90" fill="#695E91" />
  
  <!-- Number "2" -->
  <g transform="translate(54.5, 36.5)">
    <path d="M31.7151 15.2857C26.9459 15.2857 22.3542 17.3158 18.9825 20.9701L12.1282 28.3263C9.35538 31.3118 4.85238 31.3118 2.07959 28.3263C-0.693197 25.3408 -0.693197 20.4924 2.07959 17.5069L8.93392 10.1507C14.9897 3.65424 23.175 0 31.7151 0C49.4832 0 63.9017 15.5246 63.9017 34.6556C63.9017 43.8509 60.5078 52.6641 54.4742 59.1605L24.2619 91.7143H63.9017C67.8279 91.7143 71 95.1297 71 99.3571C71 103.585 67.8279 107 63.9017 107H7.11497C4.25346 107 1.65813 105.137 0.549012 102.271C-0.560103 99.4049 0.0610012 96.1328 2.07959 93.9355L44.4256 48.365C47.7973 44.7346 49.705 39.7906 49.705 34.6556C49.705 23.9556 41.6528 15.2857 31.7151 15.2857Z" fill="#C7C2D9"/>
  </g>
</svg>