<svg xmlns="http://www.w3.org/2000/svg" width="180" height="180" viewBox="0 0 180 180">
  <!-- Background circle -->
  <circle cx="90" cy="90" r="90" fill="#695E91" />
  
  <!-- Number "3" -->
  <g transform="translate(57, 36.5)">
    <path d="M0 7.64286C0 3.4154 2.94937 0 6.6 0H56.1C58.8225 0 61.2562 1.9346 62.2462 4.87232C63.2362 7.81004 62.5556 11.1538 60.555 13.2795L33.4744 42.0357H37.95C53.4394 42.0357 66 56.581 66 74.5179C66 92.4547 53.4394 107 37.95 107H21.7388C12.9937 107 4.99125 101.268 1.09312 92.2159L0.70125 91.3083C-0.928125 87.5346 0.391875 82.9489 3.65062 81.062C6.90938 79.1752 10.8694 80.7038 12.4987 84.4775L12.8906 85.385C14.5612 89.2781 18.0056 91.7143 21.7388 91.7143H37.95C46.1587 91.7143 52.8 84.0237 52.8 74.5179C52.8 65.0121 46.1587 57.3214 37.95 57.3214H16.5C13.7775 57.3214 11.3438 55.3868 10.3538 52.4491C9.36375 49.5114 10.0444 46.1676 12.045 44.042L39.1256 15.2857H6.6C2.94937 15.2857 0 11.8703 0 7.64286Z" fill="#C7C2D9"/>
  </g>
</svg>